<mxfile host="app.diagrams.net" modified="2021-06-04T06:46:15.196Z" agent="5.0 (Macintosh; Intel Mac OS X 10_15_7) AppleWebKit/537.36 (KHTML, like Gecko) Chrome/89.0.4389.114 Safari/537.36" etag="TWqEQ8bmwC4qPctXnj_P" version="14.7.2" type="github">
  <diagram id="Ltd1Pkurl57DBXWD9QF-" name="Page-1">
    <mxGraphModel dx="946" dy="614" grid="0" gridSize="10" guides="1" tooltips="1" connect="1" arrows="1" fold="1" page="0" pageScale="1" pageWidth="2336" pageHeight="1654" math="0" shadow="0">
      <root>
        <mxCell id="0" />
        <mxCell id="1" parent="0" />
        <mxCell id="FzeuZx6b_UkJhij-4J4R-1" value="" style="shape=curlyBracket;whiteSpace=wrap;html=1;rounded=1;" vertex="1" parent="1">
          <mxGeometry x="360" y="80" width="20" height="240" as="geometry" />
        </mxCell>
        <mxCell id="FzeuZx6b_UkJhij-4J4R-3" value="&lt;font style=&quot;font-size: 15px&quot;&gt;运营平台&lt;br&gt;appid=1&lt;/font&gt;" style="text;html=1;strokeColor=#6c8ebf;fillColor=#dae8fc;align=center;verticalAlign=middle;whiteSpace=wrap;rounded=0;" vertex="1" parent="1">
          <mxGeometry x="280" y="180" width="80" height="40" as="geometry" />
        </mxCell>
        <mxCell id="FzeuZx6b_UkJhij-4J4R-4" value="&lt;font style=&quot;font-size: 13px&quot;&gt;跨境类目专用标签&lt;/font&gt;" style="text;html=1;strokeColor=#82b366;fillColor=#d5e8d4;align=center;verticalAlign=middle;whiteSpace=wrap;rounded=0;" vertex="1" parent="1">
          <mxGeometry x="380" y="100" width="110" height="20" as="geometry" />
        </mxCell>
        <mxCell id="FzeuZx6b_UkJhij-4J4R-5" value="" style="shape=curlyBracket;whiteSpace=wrap;html=1;rounded=1;" vertex="1" parent="1">
          <mxGeometry x="490" y="80" width="20" height="60" as="geometry" />
        </mxCell>
        <mxCell id="FzeuZx6b_UkJhij-4J4R-6" value="&lt;ul&gt;&lt;li&gt;过敏包退-生产环境标签&lt;/li&gt;&lt;li&gt;过敏无忧-进口生产环境&lt;/li&gt;&lt;li&gt;必填条形码类目-进口生产环境&lt;/li&gt;&lt;li&gt;...&lt;/li&gt;&lt;/ul&gt;" style="text;strokeColor=none;fillColor=none;html=1;whiteSpace=wrap;verticalAlign=middle;overflow=hidden;" vertex="1" parent="1">
          <mxGeometry x="485" y="70" width="230" height="80" as="geometry" />
        </mxCell>
        <mxCell id="FzeuZx6b_UkJhij-4J4R-8" value="&lt;font style=&quot;font-size: 14px&quot;&gt;类目中心标签&lt;/font&gt;" style="text;html=1;strokeColor=#82b366;fillColor=#d5e8d4;align=center;verticalAlign=middle;whiteSpace=wrap;rounded=0;" vertex="1" parent="1">
          <mxGeometry x="385" y="180" width="100" height="20" as="geometry" />
        </mxCell>
        <mxCell id="FzeuZx6b_UkJhij-4J4R-10" value="" style="shape=curlyBracket;whiteSpace=wrap;html=1;rounded=1;" vertex="1" parent="1">
          <mxGeometry x="490" y="162.5" width="20" height="57.5" as="geometry" />
        </mxCell>
        <mxCell id="FzeuZx6b_UkJhij-4J4R-11" value="&lt;ul&gt;&lt;li&gt;佣金&lt;/li&gt;&lt;li&gt;商品支持虚拟&lt;/li&gt;&lt;li&gt;类目支持7天无理由&lt;/li&gt;&lt;li&gt;...&lt;/li&gt;&lt;/ul&gt;" style="text;strokeColor=none;fillColor=none;html=1;whiteSpace=wrap;verticalAlign=middle;overflow=hidden;" vertex="1" parent="1">
          <mxGeometry x="485" y="150" width="230" height="80" as="geometry" />
        </mxCell>
        <mxCell id="FzeuZx6b_UkJhij-4J4R-12" value="&lt;font style=&quot;font-size: 14px&quot;&gt;基地甄选项目&lt;/font&gt;" style="text;html=1;strokeColor=#82b366;fillColor=#d5e8d4;align=center;verticalAlign=middle;whiteSpace=wrap;rounded=0;" vertex="1" parent="1">
          <mxGeometry x="390" y="250" width="90" height="20" as="geometry" />
        </mxCell>
        <mxCell id="FzeuZx6b_UkJhij-4J4R-13" value="" style="shape=curlyBracket;whiteSpace=wrap;html=1;rounded=1;" vertex="1" parent="1">
          <mxGeometry x="490" y="240" width="20" height="40" as="geometry" />
        </mxCell>
        <mxCell id="FzeuZx6b_UkJhij-4J4R-16" value="&lt;ul&gt;&lt;li&gt;BIC质检商家&lt;/li&gt;&lt;li&gt;...&lt;/li&gt;&lt;/ul&gt;" style="text;strokeColor=none;fillColor=none;html=1;whiteSpace=wrap;verticalAlign=middle;overflow=hidden;" vertex="1" parent="1">
          <mxGeometry x="485" y="220" width="130" height="80" as="geometry" />
        </mxCell>
        <mxCell id="FzeuZx6b_UkJhij-4J4R-17" value="&lt;font style=&quot;font-size: 14px&quot;&gt;......&lt;/font&gt;" style="text;html=1;strokeColor=none;fillColor=none;align=center;verticalAlign=middle;whiteSpace=wrap;rounded=0;" vertex="1" parent="1">
          <mxGeometry x="400" y="290" width="40" height="20" as="geometry" />
        </mxCell>
        <mxCell id="FzeuZx6b_UkJhij-4J4R-18" value="&lt;font style=&quot;font-size: 15px&quot;&gt;治理平台&lt;br&gt;appid=5&lt;/font&gt;" style="text;html=1;strokeColor=#6c8ebf;fillColor=#dae8fc;align=center;verticalAlign=middle;whiteSpace=wrap;rounded=0;" vertex="1" parent="1">
          <mxGeometry x="280" y="370" width="80" height="40" as="geometry" />
        </mxCell>
        <mxCell id="FzeuZx6b_UkJhij-4J4R-19" value="" style="shape=curlyBracket;whiteSpace=wrap;html=1;rounded=1;" vertex="1" parent="1">
          <mxGeometry x="360" y="350" width="20" height="80" as="geometry" />
        </mxCell>
        <mxCell id="FzeuZx6b_UkJhij-4J4R-20" value="标签组页面" style="text;strokeColor=#9673a6;fillColor=#e1d5e7;html=1;fontSize=24;fontStyle=1;verticalAlign=middle;align=center;" vertex="1" parent="1">
          <mxGeometry x="110" y="275" width="130" height="40" as="geometry" />
        </mxCell>
        <mxCell id="FzeuZx6b_UkJhij-4J4R-21" value="&lt;font style=&quot;font-size: 14px&quot;&gt;短视频回查&lt;/font&gt;" style="text;html=1;strokeColor=#82b366;fillColor=#d5e8d4;align=center;verticalAlign=middle;whiteSpace=wrap;rounded=0;" vertex="1" parent="1">
          <mxGeometry x="395" y="360" width="90" height="20" as="geometry" />
        </mxCell>
        <mxCell id="FzeuZx6b_UkJhij-4J4R-25" value="" style="shape=curlyBracket;whiteSpace=wrap;html=1;rounded=1;" vertex="1" parent="1">
          <mxGeometry x="490" y="342.5" width="20" height="57.5" as="geometry" />
        </mxCell>
        <mxCell id="FzeuZx6b_UkJhij-4J4R-26" value="&lt;ul&gt;&lt;li&gt;蹭热点&lt;/li&gt;&lt;li&gt;演戏炒作&lt;/li&gt;&lt;li&gt;售卖假货&lt;/li&gt;&lt;li&gt;...&lt;/li&gt;&lt;/ul&gt;" style="text;strokeColor=none;fillColor=none;html=1;whiteSpace=wrap;verticalAlign=middle;overflow=hidden;" vertex="1" parent="1">
          <mxGeometry x="485" y="330" width="230" height="80" as="geometry" />
        </mxCell>
        <mxCell id="FzeuZx6b_UkJhij-4J4R-29" value="&lt;font style=&quot;font-size: 14px&quot;&gt;......&lt;/font&gt;" style="text;html=1;strokeColor=none;fillColor=none;align=center;verticalAlign=middle;whiteSpace=wrap;rounded=0;" vertex="1" parent="1">
          <mxGeometry x="400" y="400" width="40" height="20" as="geometry" />
        </mxCell>
        <mxCell id="FzeuZx6b_UkJhij-4J4R-31" value="&lt;font style=&quot;font-size: 15px&quot;&gt;商品治理&lt;br&gt;appid=6&lt;/font&gt;" style="text;html=1;strokeColor=#6c8ebf;fillColor=#dae8fc;align=center;verticalAlign=middle;whiteSpace=wrap;rounded=0;" vertex="1" parent="1">
          <mxGeometry x="280" y="460" width="80" height="40" as="geometry" />
        </mxCell>
        <mxCell id="FzeuZx6b_UkJhij-4J4R-32" value="" style="shape=curlyBracket;whiteSpace=wrap;html=1;rounded=1;" vertex="1" parent="1">
          <mxGeometry x="360" y="450" width="25" height="60" as="geometry" />
        </mxCell>
        <mxCell id="FzeuZx6b_UkJhij-4J4R-33" value="&lt;font style=&quot;font-size: 14px&quot;&gt;......&lt;/font&gt;" style="text;html=1;strokeColor=none;fillColor=none;align=center;verticalAlign=middle;whiteSpace=wrap;rounded=0;" vertex="1" parent="1">
          <mxGeometry x="400" y="470" width="40" height="20" as="geometry" />
        </mxCell>
        <mxCell id="FzeuZx6b_UkJhij-4J4R-34" value="" style="shape=curlyBracket;whiteSpace=wrap;html=1;rounded=1;" vertex="1" parent="1">
          <mxGeometry x="250" y="80" width="20" height="430" as="geometry" />
        </mxCell>
        <mxCell id="FzeuZx6b_UkJhij-4J4R-35" value="&lt;font style=&quot;font-size: 14px&quot;&gt;标签树中选择标签归纳成组&lt;/font&gt;" style="text;html=1;strokeColor=#d6b656;fillColor=#fff2cc;align=center;verticalAlign=middle;whiteSpace=wrap;rounded=0;" vertex="1" parent="1">
          <mxGeometry x="505" y="40" width="175" height="20" as="geometry" />
        </mxCell>
        <mxCell id="FzeuZx6b_UkJhij-4J4R-36" value="" style="endArrow=none;dashed=1;html=1;dashPattern=1 3;strokeWidth=3;strokeColor=#FF6666;" edge="1" parent="1">
          <mxGeometry width="50" height="50" relative="1" as="geometry">
            <mxPoint x="490" y="522" as="sourcePoint" />
            <mxPoint x="490" y="10" as="targetPoint" />
          </mxGeometry>
        </mxCell>
        <mxCell id="FzeuZx6b_UkJhij-4J4R-37" value="&lt;font style=&quot;font-size: 14px&quot;&gt;应用&lt;/font&gt;" style="text;html=1;strokeColor=#d6b656;fillColor=#fff2cc;align=center;verticalAlign=middle;whiteSpace=wrap;rounded=0;" vertex="1" parent="1">
          <mxGeometry x="290" y="40" width="40" height="20" as="geometry" />
        </mxCell>
        <mxCell id="FzeuZx6b_UkJhij-4J4R-38" value="&lt;font style=&quot;font-size: 14px&quot;&gt;标签组&lt;/font&gt;" style="text;html=1;strokeColor=#d6b656;fillColor=#fff2cc;align=center;verticalAlign=middle;whiteSpace=wrap;rounded=0;" vertex="1" parent="1">
          <mxGeometry x="400" y="40" width="55" height="20" as="geometry" />
        </mxCell>
      </root>
    </mxGraphModel>
  </diagram>
</mxfile>
